HIERARCHY
ROOT Hips
{
    OFFSET 0.0 0.0 0.0
    CHANNELS 6 Xposition Yposition Zposition Zrotation Xrotation Yrotation
    JOINT LeftHipJoint
    {
        OFFSET 0.1 0.0 0.0
        CHANNELS 3 Zrotation Xrotation Yrotation
        JOINT LeftUpLeg
        {
            OFFSET 118.58764237957877 0.0 0.0
            CHANNELS 3 Zrotation Xrotation Yrotation
            JOINT LeftLeg
            {
                OFFSET 0.0 0.0 -401.047656361042
                CHANNELS 3 Zrotation Xrotation Yrotation
                JOINT LeftFoot
                {
                    OFFSET 0.0 0.0 -394.0136678336803
                    CHANNELS 3 Zrotation Xrotation Yrotation
                    End Site
                    {
                        OFFSET 0.0 -0.1 0.0
                    }
                }
            }
        }
    }
    JOINT LowerBack
    {
        OFFSET 0.0 0.0 0.1
        CHANNELS 3 Zrotation Xrotation Yrotation
        JOINT Spine
        {
            OFFSET 0.0 0.0 217.74140104282395
            CHANNELS 3 Zrotation Xrotation Yrotation
            JOINT Spine1
            {
                OFFSET 0.0 0.0 253.01475556165042
                CHANNELS 3 Zrotation Xrotation Yrotation
                JOINT LeftShoulder
                {
                    OFFSET 0.1 0.0 0.0
                    CHANNELS 3 Zrotation Xrotation Yrotation
                    JOINT LeftArm
                    {
                        OFFSET 143.67228480179085 0.0 0.0
                        CHANNELS 3 Zrotation Xrotation Yrotation
                        JOINT LeftForeArm
                        {
                            OFFSET 255.79497822337407 0.0 0.0
                            CHANNELS 3 Zrotation Xrotation Yrotation
                            JOINT LeftHand
                            {
                                OFFSET 243.1667118749965 0.0 0.0
                                CHANNELS 3 Zrotation Xrotation Yrotation
                                End Site
                                {
                                    OFFSET 0.1 0.0 0.0
                                }
                            }
                        }
                    }
                }
                JOINT Neck
                {
                    OFFSET 0.0 0.0 0.1
                    CHANNELS 3 Zrotation Xrotation Yrotation
                    JOINT Neck1
                    {
                        OFFSET 0.0 0.0 108.77746885362666
                        CHANNELS 3 Zrotation Xrotation Yrotation
                        End Site
                        {
                            OFFSET 0.0 0.0 117.72879456648256
                        }
                    }
                }
                JOINT RightShoulder
                {
                    OFFSET -0.1 0.0 0.0
                    CHANNELS 3 Zrotation Xrotation Yrotation
                    JOINT RightArm
                    {
                        OFFSET -143.67228480179085 0.0 0.0
                        CHANNELS 3 Zrotation Xrotation Yrotation
                        JOINT RightForeArm
                        {
                            OFFSET -255.79497822337407 0.0 0.0
                            CHANNELS 3 Zrotation Xrotation Yrotation
                            JOINT RightHand
                            {
                                OFFSET -243.1667118749965 0.0 0.0
                                CHANNELS 3 Zrotation Xrotation Yrotation
                                End Site
                                {
                                    OFFSET -0.1 0.0 0.0
                                }
                            }
                        }
                    }
                }
            }
        }
    }
    JOINT RightHipJoint
    {
        OFFSET -0.1 0.0 0.0
        CHANNELS 3 Zrotation Xrotation Yrotation
        JOINT RightUpLeg
        {
            OFFSET -118.58764237957877 0.0 0.0
            CHANNELS 3 Zrotation Xrotation Yrotation
            JOINT RightLeg
            {
                OFFSET 0.0 0.0 -401.047656361042
                CHANNELS 3 Zrotation Xrotation Yrotation
                JOINT RightFoot
                {
                    OFFSET 0.0 0.0 -394.0136678336803
                    CHANNELS 3 Zrotation Xrotation Yrotation
                    End Site
                    {
                        OFFSET 0.0 -0.1 0.0
                    }
                }
            }
        }
    }
}
MOTION
Frames: 10
Frame Time: 0.03333333333333333
0.0 0.0 798.9299691375959 27.985856678493562 -2.92029204621882 5.07650351820832 0.0 7.951386703658791e-16 0.0 0.11865334909388846 -15.885841893024159 -1.641340876387641 -1.242367294035772 30.956336456430726 0.6077639323638822 0.0 0.0 3.975693351829396e-16 0.0 7.951386703658791e-16 0.0 0.04394240194352812 -6.115140909361817 -0.1562479081455848 2.72377688575887 4.930416435231134e-15 -1.707941989370412e-15 0.0 1.6896696745274934e-15 0.0 -34.328218142677464 13.647472850448592 77.23969363456597 -22.783030460364003 1.8014175698880789e-16 -1.699716872844462e-14 0.0 0.0 1.987846675914698e-16 0.0 1.6896696745274934e-15 0.0 -10.57422349119741 -6.751471861799237 0.031905890179272665 0.0 1.6896696745274934e-15 0.0 6.325376777022306 -47.699714072111355 -36.543649738647595 116.20062458091556 -1.2123269280171623e-14 7.439415541293341e-15 0.0 0.0 0.0 0.0 7.951386703658791e-16 0.0 0.04212461881594254 -6.073888863166918 -1.8679276807241088 -0.9272970960533757 22.13741959641026 0.7980805130403418 0.0 0.0 3.975693351829396e-16
0.0 0.0 798.9299691375959 28.018064710562584 -2.9257052277896007 4.902548532193527 0.0 0.0 -1.987846675914698e-16 0.1626949684828026 -16.02262856175474 -1.534015413461658 -1.2900696402346077 31.32057354219081 0.7516646649739597 0.0 0.0 7.951386703658792e-16 0.0 0.0 -1.987846675914698e-16 0.060657226528988514 -6.183067539736441 -0.10955172769889819 2.673482813568677 1.093018131714293e-15 -2.5505329731125956e-17 0.0 0.0 0.0 -34.72068374195787 14.021079122979474 77.51783142297255 -22.84874967430352 3.3734702817644128e-15 -6.365136501019729e-16 0.0 0.0 2.186631343506168e-15 0.0 0.0 0.0 -10.58822233786196 -6.641423991345574 0.02586129177094769 0.0 0.0 0.0 6.6947428308387975 -47.88262718306188 -36.052056904640814 115.98478902260348 -1.4159748806540895e-14 -1.3491016904790782e-15 0.0 -1.5902773407317584e-15 0.0 0.0 0.0 -1.987846675914698e-16 0.0580079879101774 -6.0656555378108346 -1.715826355920637 -0.9273151526200822 22.15141066831011 0.8015660488875131 0.0 0.0 -7.951386703658792e-16
0.0 0.0 798.9299691375959 28.030531574828792 -2.879531075480932 4.768229966143992 6.207055731633036e-33 5.963540027744094e-16 -1.1927080055488188e-15 0.19593842630931013 -16.16824178769594 -1.4699730635306407 -1.337078019413313 31.636249975518332 0.9042313669610471 0.0 0.0 7.951386703658791e-16 6.207055731633036e-33 5.963540027744094e-16 -1.1927080055488188e-15 0.07308885691332118 -6.23341616784899 -0.02742044431612741 2.6436367704085035 6.955611966883721e-16 -1.6049501930473128e-17 0.0 0.0 0.0 -34.648415441668234 14.366914962122456 77.66556667617571 -22.95453272922223 -5.5456210924419175e-15 3.3365178573898766e-15 0.0 0.0 3.975693351829396e-16 0.0 0.0 0.0 -10.631941449629629 -6.537803968386072 -0.13491342243720855 0.0 0.0 0.0 6.893846634490381 -48.1645586471146 -35.7622879890587 115.67179895916983 1.998539089631407e-15 8.771161049795587e-15 -7.951386703658792e-16 0.0 0.0 6.207055731633036e-33 5.963540027744094e-16 -1.1927080055488188e-15 0.06885068939237939 -6.001800151472371 -1.6749009009902553 -0.9512692275592063 22.065044972172764 0.883569100748839 0.0 0.0 7.951386703658792e-16
0.0 0.0 798.9299691375959 28.00071991283767 -2.656625143043109 4.651271721706359 0.0 0.0 1.987846675914698e-16 0.2199581994614223 -16.364920695869927 -1.4377747921372475 -1.3662961091848194 31.664147652604676 1.0671032000212464 0.0 0.0 -7.951386703658792e-16 0.0 0.0 1.987846675914698e-16 0.08231628149690531 -6.326108822701776 0.03258837981453924 2.648354280273034 -8.09907772727405e-17 7.97223202826748e-16 0.0 0.0 0.0 -34.65103403639412 14.56585353535435 77.72665340861325 -23.009984283828988 -5.995408128229799e-15 -2.4374876593686097e-15 0.0 0.0 -3.1805546814635176e-15 0.0 0.0 0.0 -10.624411228039241 -6.605811766014609 -0.26495381172480514 0.0 0.0 0.0 7.113194096190303 -48.445512734214184 -35.461871573176396 115.38180773505384 1.4235913297441697e-15 -1.4152453828275403e-14 3.975693351829396e-16 0.0 0.0 0.0 0.0 1.987846675914698e-16 0.07735121906649284 -6.060681888824445 -1.6599024927135346 -0.9642238295964733 21.84098559172176 0.9554275317343299 6.896728590703373e-34 -1.987846675914698e-16 3.975693351829396e-16
0.0 0.0 798.9299691375959 27.94311790487771 -2.4883113882263874 4.611511254606542 0.0 0.0 -5.963540027744094e-16 0.227041295046232 -16.598867525158308 -1.512645893657795 -1.445448677602566 32.09861585409148 1.2873891143857639 0.0 0.0 7.951386703658792e-16 0.0 0.0 -5.963540027744094e-16 0.08526854437276794 -6.443323515168059 -0.03170944107350397 2.621111823437468 -9.027331853747405e-17 3.997385899001986e-16 -6.3611093629270335e-15 0.0 0.0 -35.129700913449135 14.853071303248257 77.93846620665818 -23.113765780903105 5.863974529853985e-15 -1.2800870435625074e-14 0.0 0.0 -2.782985346280577e-15 -6.3611093629270335e-15 0.0 0.0 -10.669622091961553 -6.636935592981785 -0.33701860991993954 -6.3611093629270335e-15 0.0 0.0 7.351432237082616 -48.56713629349236 -35.08139474293276 115.2989675007769 -1.9699909908904596e-15 -8.777616997229167e-15 -7.951386703658792e-16 0.0 0.0 0.0 0.0 -5.963540027744094e-16 0.08034341088073182 -6.189039497471719 -1.6955328165820418 -0.98924923461406 21.953260130553055 0.978704782587611 0.0 0.0 -7.951386703658792e-16
0.0 0.0 798.9299691375959 27.861888545796017 -2.325093951167343 4.571425781801281 0.0 0.0 -9.939233379573489e-17 0.22905201886473273 -16.79501425906781 -1.6099292220345007 -1.5279914049186256 32.48571893106696 1.5731782094085494 0.0 0.0 7.951386703658791e-16 0.0 0.0 -9.939233379573489e-17 0.0860992886884315 -6.529141887126653 -0.05812790273353772 2.632646713390902 2.1677882536029818e-15 -8.451604729610456e-16 0.0 0.0 0.0 -35.889889620472175 15.08426881119171 78.09739972313484 -23.22058487565942 -1.0801670432799707e-15 5.257368636993385e-15 1.5902773407317588e-15 2.2069531490250793e-32 1.5902773407317588e-15 0.0 0.0 0.0 -10.64938145067257 -6.617838370540825 -0.44712305626563964 0.0 0.0 0.0 7.346322109461723 -48.7157389338755 -34.94529024292288 115.34604546910282 -5.37520193846139e-15 -3.4016049811638733e-15 7.951386703658792e-16 0.0 0.0 0.0 0.0 -9.939233379573489e-17 0.08200759712193209 -6.338351917354794 -1.6844671912810216 -0.9920326436765713 22.120279898739984 0.9081126003626551 0.0 0.0 0.0
0.0 0.0 798.9299691375959 27.852033884825886 -2.2839574194004255 4.464768504936533 0.0 0.0 -9.93923337957349e-17 0.23950792047271893 -16.92862487257288 -1.5631873886475107 -1.541165124833473 32.892810787447445 1.5455470220189853 0.0 0.0 7.951386703658792e-16 0.0 0.0 -9.93923337957349e-17 0.08981401656783622 -6.565314385160693 -0.006723501121571826 2.6276812356493298 -8.9429583169456e-16 2.051055387161594e-17 -6.3611093629270335e-15 9.93923337957349e-17 5.517382872562698e-33 -36.790729576282764 15.247328407457704 78.18777986156142 -23.347007517490127 -8.562356298835741e-15 1.0003968432004349e-14 0.0 0.0 -9.93923337957349e-16 -6.3611093629270335e-15 9.93923337957349e-17 5.517382872562698e-33 -10.57244236971658 -6.57594110182187 -0.5247755027755842 -6.3611093629270335e-15 9.93923337957349e-17 5.517382872562698e-33 7.5425893491176 -48.78861520617329 -34.752600223266064 115.42881581538961 3.397721545294149e-15 -5.377657540952372e-15 -7.951386703658792e-16 0.0 0.0 0.0 0.0 -9.93923337957349e-17 0.08377811158998584 -6.238931773898212 -1.621623612056885 -0.9784478655522353 22.131677271053643 0.915639722678127 0.0 0.0 3.975693351829396e-16
0.0 0.0 798.9299691375959 27.83109649154647 -2.3289210005421177 4.386214342164565 0.0 0.0 -1.987846675914698e-16 0.228544515963553 -17.035394434005344 -1.5100697508412562 -1.4896636824849983 33.07511626321801 1.4822840268551656 0.0 0.0 -3.975693351829396e-16 0.0 0.0 -1.987846675914698e-16 0.08522184108506742 -6.57408056263285 0.03555683052900854 2.601877323592355 -9.846408420782215e-16 4.2003260602669144e-16 0.0 0.0 0.0 -37.698277954299556 15.46968129002536 78.35106826117193 -23.332622172826444 1.3162459270765988e-15 1.4896412542620386e-15 0.0 0.0 -7.951386703658792e-16 0.0 0.0 0.0 -10.462861162843323 -6.43779891231401 -0.6560886197610657 0.0 0.0 0.0 7.819891571088564 -48.71199125864218 -34.612805371514185 115.39366309862335 -3.3993710642565484e-15 5.376614984784876e-15 0.0 0.0 0.0 0.0 0.0 -1.987846675914698e-16 0.07850725591696277 -6.175677008463382 -1.585915211576065 -0.9476911931778697 22.143963251566614 0.9139601182255331 0.0 0.0 7.951386703658792e-16
0.0 0.0 798.9299691375959 27.8205064232442 -2.304125161453002 4.339930313007904 0.0 0.0 -1.987846675914698e-16 0.25009138448288815 -17.173917272622408 -1.4686855134685215 -1.5199274504728204 33.31099278559756 1.4669182689008424 5.517382872562698e-33 1.5902773407317582e-15 -3.9756933518293955e-16 0.0 0.0 -1.987846675914698e-16 0.09273394998448825 -6.588602233017854 0.020248941739365697 2.5459388977037536 -1.7974527434562524e-15 -3.5772598583963567e-16 0.0 0.0 0.0 -38.51573157721859 15.556120226998322 78.45212470305721 -23.454835910662588 1.8029706750661593e-16 -8.692545436884903e-15 0.0 0.0 -2.3854160110976376e-15 0.0 0.0 0.0 -10.313444069395729 -6.393729575402119 -0.7600373006881468 0.0 0.0 0.0 8.076060489038662 -48.749531468459296 -34.35881740673908 115.29076594537224 3.4041976087415697e-15 -5.3735603623441456e-15 -3.975693351829396e-16 0.0 0.0 0.0 0.0 -1.987846675914698e-16 0.08583977293511652 -6.208489683485266 -1.517794931217261 -0.9445833292061113 22.115474255464243 0.8015447574948888 0.0 0.0 0.0
0.0 0.0 798.9299691375959 27.886965191506068 -2.3696682735382173 4.256793529228133 0.0 0.0 -9.93923337957349e-17 0.27614217418058196 -17.332949758226057 -1.3662316022715129 -1.535365251863916 33.83972986122811 1.415988686618197 0.0 0.0 -3.975693351829396e-16 0.0 0.0 -9.93923337957349e-17 0.10069216418824546 -6.5405671341452525 0.058752624649879404 2.4922276106515335 3.957461178218695e-15 -8.814103220314406e-16 0.0 0.0 0.0 -38.993118358174264 15.83985953054067 78.5895762448852 -23.552052702909467 -2.991905352022575e-15 -1.2329105981145698e-15 -4.965644585306429e-32 -1.590277340731758e-15 -3.578124016646456e-15 0.0 0.0 0.0 -10.368854161894582 -6.329787265674615 -0.9599776032547483 0.0 0.0 0.0 8.197023755711877 -48.73776390753396 -34.261203047048056 115.37482647625646 -5.376056121695099e-15 -3.4002548292006917e-15 0.0 0.0 0.0 0.0 0.0 -9.93923337957349e-17 0.09325091015836444 -6.162878629793033 -1.459576421261285 -0.9605479604763257 22.30085603464946 0.6581380613579207 0.0 0.0 -3.975693351829396e-16
